<svg width="1920" height="1004" viewBox="0 0 1920 1004" fill="none" xmlns="http://www.w3.org/2000/svg">
<rect y="447" width="1920" height="557" fill="#F7F7FC"/>
<path fill-rule="evenodd" clip-rule="evenodd" d="M1998 777.385C1983.91 779.111 1969.56 780 1955 780C1761.7 780 1605 623.3 1605 430C1605 236.7 1761.7 80.0001 1955 80.0001C2148.3 80.0001 2305 236.7 2305 430C2305 475.938 2296.15 519.809 2280.06 560H2365C2377.99 518.987 2385 475.312 2385 430C2385 192.518 2192.48 0.00012207 1955 0.00012207C1717.52 0.00012207 1525 192.518 1525 430C1525 667.483 1717.52 860 1955 860C1969.51 860 1983.86 859.281 1998 857.877V777.385Z" fill="#ECECFB"/>
</svg>
