<svg width="296" height="860" viewBox="0 0 296 860" fill="none" xmlns="http://www.w3.org/2000/svg">
<path fill-rule="evenodd" clip-rule="evenodd" d="M34.3853 750C134.041 698.483 206.551 601.781 224.81 487H295.552C281.78 590.99 230.845 683.251 156.531 750H34.3853ZM-87.7029 787.458C-101.802 789.137 -116.152 790 -130.703 790C-329.525 790 -490.703 628.823 -490.703 430C-490.703 231.177 -329.525 70 -130.703 70C-116.152 70 -101.802 70.8633 -87.7029 72.5415V6H-58.7113C-82.1203 2.05421 -106.172 0 -130.703 0C-368.185 0 -560.703 192.518 -560.703 430C-560.703 667.482 -368.185 860 -130.703 860C-116.19 860 -101.846 859.281 -87.7029 857.877V787.458Z" fill="#ECECFB"/>
</svg>
