<svg width="321" height="860" viewBox="0 0 321 860" fill="none" xmlns="http://www.w3.org/2000/svg">
<path fill-rule="evenodd" clip-rule="evenodd" d="M-109 0C-94.4875 0 -80.143 0.718936 -66 2.12314V82.6152C-80.0915 80.8888 -94.442 80 -109 80C-302.3 80 -459 236.7 -459 430C-459 623.3 -302.3 780 -109 780C-94.442 780 -80.0915 779.111 -66 777.385V857.877C-80.143 859.281 -94.4875 860 -109 860C-346.482 860 -539 667.482 -539 430C-539 192.518 -346.482 0 -109 0ZM300.999 560C313.991 518.987 321 475.312 321 430C321 380.613 312.674 333.171 297.349 289H211.438C230.446 332.136 241 379.835 241 430C241 475.938 232.15 519.808 216.062 560H300.999Z" fill="#ECECFB"/>
</svg>
