<svg width="120" height="104" viewBox="0 0 120 104" fill="none" xmlns="http://www.w3.org/2000/svg">
<path fill-rule="evenodd" clip-rule="evenodd" d="M45.9026 81.7589C63.7321 90.4215 98.9944 84.8436 107.687 67.0906C116.379 49.3376 90.5822 29.2774 72.7526 20.6148C54.9231 11.9522 30.8334 -0.989616 22.1413 16.7633C13.4491 34.5163 28.073 73.0963 45.9026 81.7589Z" fill="#FFF9EF"/>
<path d="M45.8333 42.875H9.16665C6.6229 42.875 4.58331 44.9146 4.58331 47.4583V74.9583C4.58331 77.4792 6.6229 79.5417 9.16665 79.5417H18.3333V84.125H36.6666V79.5417H45.8333C48.3541 79.5417 50.4166 77.4792 50.4166 74.9583V47.4583C50.4166 44.9146 48.3541 42.875 45.8333 42.875ZM45.8333 74.9583H9.16665V47.4583H45.8333V74.9583Z" fill="#FFBD5C"/>
<path d="M32.0833 54.9062H13.75V58.3438H32.0833V54.9062Z" fill="#FFBD5C"/>
<path d="M37.8125 58.3437H41.25V54.9062H37.8125V52.0416H34.375V61.2083H37.8125V58.3437Z" fill="#FFBD5C"/>
<path d="M41.25 64.0729H22.9166V67.5104H41.25V64.0729Z" fill="#FFBD5C"/>
<path d="M17.1875 70.375H20.625V61.2084H17.1875V64.073H13.75V67.5105H17.1875V70.375Z" fill="#FFBD5C"/>
</svg>
