<svg width="120" height="104" viewBox="0 0 120 104" fill="none" xmlns="http://www.w3.org/2000/svg">
<path fill-rule="evenodd" clip-rule="evenodd" d="M45.9026 81.7589C63.7321 90.4215 98.9944 84.8436 107.687 67.0906C116.379 49.3376 90.5822 29.2774 72.7526 20.6148C54.9231 11.9522 30.8334 -0.989616 22.1413 16.7633C13.4491 34.5163 28.073 73.0963 45.9026 81.7589Z" fill="#F2F1FE"/>
<path d="M38.1792 42.3583L44.6646 48.8438L38.1792 55.3292L31.6938 48.8438L38.1792 42.3583ZM20.625 43.4583V52.625H11.4583V43.4583H20.625ZM43.5417 66.375V75.5417H34.375V66.375H43.5417ZM20.625 66.375V75.5417H11.4583V66.375H20.625ZM38.1792 35.8729L25.2083 48.8208L38.1792 61.7917L51.15 48.8208L38.1792 35.8729ZM25.2083 38.875H6.875V57.2083H25.2083V38.875ZM48.125 61.7917H29.7917V80.125H48.125V61.7917ZM25.2083 61.7917H6.875V80.125H25.2083V61.7917Z" fill="#766DF4"/>
</svg>
