<svg width="120" height="104" viewBox="0 0 120 104" fill="none" xmlns="http://www.w3.org/2000/svg">
<path fill-rule="evenodd" clip-rule="evenodd" d="M45.9026 81.7589C63.7321 90.4215 98.9944 84.8436 107.687 67.0906C116.379 49.3376 90.5822 29.2774 72.7526 20.6148C54.9231 11.9522 30.8334 -0.989616 22.1413 16.7633C13.4491 34.5163 28.073 73.0963 45.9026 81.7589Z" fill="#FEEDF1"/>
<path d="M45.6729 55.1354L37.4229 58.9854L32.0833 53.6458V50.4375L37.4229 45.0979L45.6729 48.9479C46.5437 49.3604 47.5521 48.9708 47.9646 48.1229C48.3771 47.252 47.9875 46.2437 47.1396 45.8312L38.1562 41.6375C37.2854 41.225 36.2542 41.4083 35.5667 42.0958L31.5792 46.0833C31.1667 45.5333 30.525 45.1666 29.7917 45.1666C28.5312 45.1666 27.5 46.1979 27.5 47.4583V49.75H20.2125C19.25 47.0916 16.7292 45.1666 13.75 45.1666C9.94583 45.1666 6.875 48.2375 6.875 52.0416C6.875 54.5625 8.25 56.7395 10.2667 57.9541L16.225 77.25H13.75C11.2292 77.25 9.16667 79.3125 9.16667 81.8333V84.125H38.9583V81.8333C38.9583 79.3125 36.8958 77.25 34.375 77.25H30.6625L19.2729 56.0979C19.6625 55.5479 19.9833 54.975 20.2125 54.3333H27.5V56.625C27.5 57.8854 28.5312 58.9166 29.7917 58.9166C30.525 58.9166 31.1667 58.55 31.5792 58L35.5667 61.9875C36.2542 62.675 37.2854 62.8583 38.1562 62.4458L47.1396 58.252C48.0104 57.8395 48.3771 56.8312 47.9646 55.9604C47.5521 55.1125 46.5437 54.7229 45.6729 55.1354ZM13.75 54.3333C12.4896 54.3333 11.4583 53.302 11.4583 52.0416C11.4583 50.7812 12.4896 49.75 13.75 49.75C15.0104 49.75 16.0417 50.7812 16.0417 52.0416C16.0417 53.302 15.0104 54.3333 13.75 54.3333ZM25.4604 77.25H21.0146L15.3771 58.9166H15.6062L25.4604 77.25Z" fill="#F74F78"/>
</svg>
