<svg width="98" height="88" viewBox="0 0 98 88" fill="none" xmlns="http://www.w3.org/2000/svg">
<g clip-path="url(#clip0_54_77)">
<path opacity="0.2" d="M77.5224 61.6792L77.4975 61.6H74.4259C68.8633 61.6102 64.3582 65.4778 64.3582 70.2445V77.7333H68.7945V70.2445C68.796 65.9222 72.5244 62.2658 77.5224 61.6792ZM77.1319 49.1333C77.1333 46.2396 79.0699 43.6832 81.9105 42.8266C79.127 41.9936 76.108 42.9836 74.4069 45.2848C73.5791 46.397 73.1319 47.7477 73.1319 49.1355C73.1319 50.5233 73.5791 51.874 74.4069 52.9862C76.1065 55.2889 79.1255 56.276 81.9105 55.4444C79.0699 54.5864 77.1333 52.03 77.1319 49.1377V49.1333ZM12.7736 13.9333C12.7751 11.0396 14.7117 8.48318 17.5522 7.62664C14.7688 6.79358 11.7498 7.78358 10.0487 10.0848C9.22092 11.197 8.77372 12.5477 8.77372 13.9355C8.77372 15.3233 9.22092 16.674 10.0487 17.7862C11.7483 20.0889 14.7673 21.076 17.5522 20.2444C14.7117 19.3864 12.7751 16.83 12.7736 13.9377V13.9333ZM14.6269 26.4792L14.602 26.4H11.5304C5.96777 26.4102 1.46269 30.2778 1.46269 35.0445V42.5333H5.89902V35.0445C5.90195 30.7222 9.62887 27.0658 14.6269 26.4792Z" fill="#766DF4"/>
<path d="M1.19501 45.1675H33.301C33.9592 45.1675 34.496 44.6351 34.496 43.9942V34.9991C34.4945 28.7408 29.4161 23.6544 23.1222 23.6104H11.4309C5.11502 23.609 0.00146269 28.7027 0 34.9844V43.9795C0 44.6366 0.535343 45.1528 1.19501 45.1528V45.1675ZM17.3504 30.5859L18.6785 37.6552L17.2246 39.2246L15.8277 37.6758L17.3489 30.583L17.3504 30.5859ZM17.8331 25.9718L17.3943 27.6144H17.1017L16.6629 25.9718H17.8331ZM2.39003 34.9844C2.39003 30.0154 6.43436 25.9835 11.4294 25.9732H14.1881L14.9194 28.7687C14.9677 28.9594 15.0657 29.1412 15.1651 29.304L13.3456 37.7784C13.2651 38.151 13.3704 38.5382 13.6381 38.8051L16.3207 41.7766C16.4324 41.9 16.5685 41.9989 16.7203 42.0668C16.8721 42.1347 17.0364 42.1702 17.2027 42.1711H17.21C17.375 42.1711 17.5382 42.137 17.6895 42.0709C17.8407 42.0048 17.9768 41.9081 18.089 41.7868L20.8389 38.8154C21.0934 38.5396 21.2046 38.1612 21.1344 37.7916L19.4815 28.9814C19.5099 28.9132 19.5333 28.8431 19.5517 28.7716L20.305 25.9586H23.0622C28.0587 25.9703 32.1016 30.0007 32.1016 34.9698V42.7754H2.39003V34.9683V34.9844ZM28.5429 31.636H24.4225C23.7643 31.636 23.2275 32.1684 23.2275 32.8094C23.2275 33.4503 23.7628 33.9827 24.4225 33.9827H28.5429C29.2011 33.9827 29.7379 33.4503 29.7379 32.8094C29.7379 32.1684 29.2025 31.636 28.5429 31.636ZM17.248 22.7099C20.9632 22.7158 24.3201 20.5099 25.7316 17.0808C26.4294 15.4116 26.6136 13.5713 26.2607 11.7963C25.9079 10.0213 25.0339 8.39255 23.7511 7.11922C22.4621 5.84186 20.827 4.9726 19.0493 4.61952C17.2715 4.26644 15.4295 4.44513 13.7522 5.13336C10.3178 6.54722 8.07696 9.87949 8.07696 13.5755C8.07842 18.615 12.1813 22.7011 17.248 22.7128V22.7099ZM17.248 6.81562C19.9979 6.80976 22.4815 8.45242 23.5376 10.9766C24.0544 12.2115 24.1912 13.5731 23.9306 14.8866C23.67 16.2001 23.0237 17.4055 22.0749 18.348C20.1324 20.284 17.2085 20.8648 14.6664 19.8206C12.1242 18.7763 10.4684 16.3094 10.4684 13.5755C10.4684 9.85015 13.5021 6.82589 17.248 6.81709V6.81562ZM86.6262 58.9644H74.9364C68.6205 58.9791 63.5069 64.0713 63.5055 70.3531V79.3467C63.5055 80.0037 64.0408 80.52 64.7005 80.52H96.8064C97.4647 80.52 98.0015 79.9876 98.0015 79.3467V70.3516C98 64.0933 92.9216 59.007 86.6276 58.9629L86.6262 58.9644ZM80.8573 65.956L82.1854 73.0254L80.7315 74.5947L79.3332 73.0473L80.8573 65.9546V65.956ZM81.34 61.3404L80.9012 62.9831H80.6087L80.1699 61.3404H81.34ZM95.61 78.1733H65.894V70.3663C65.894 65.3972 69.9384 61.3653 74.9334 61.3551H77.6906L78.422 64.1505C78.4704 64.3426 78.5537 64.5241 78.6677 64.6859L76.8481 73.1603C76.7676 73.5328 76.8715 73.92 77.1406 74.187L79.8232 77.1584C79.9349 77.2819 80.071 77.3807 80.2228 77.4486C80.3747 77.5165 80.5389 77.5521 80.7052 77.5529H80.7125C80.8775 77.553 81.0408 77.5189 81.192 77.4527C81.3433 77.3866 81.4793 77.2899 81.5916 77.1687L84.3414 74.1972C84.4676 74.0622 84.5601 73.8993 84.6114 73.7216C84.6628 73.5439 84.6715 73.3566 84.6369 73.1749L82.9811 64.3647C83.0095 64.2961 83.033 64.2255 83.0513 64.1535L83.8046 61.3404H86.5618C91.5583 61.3507 95.6012 65.3825 95.6041 70.3516V78.1733H95.61ZM92.0469 67.0032H87.9265C87.2683 67.0032 86.7315 67.5356 86.7315 68.1766C86.7315 68.8175 87.2668 69.3499 87.9265 69.3499H92.0469C92.7051 69.3499 93.2419 68.8175 93.2419 68.1766C93.2419 67.5356 92.7065 67.0032 92.0469 67.0032ZM80.752 58.08C84.4672 58.0859 87.8241 55.88 89.2356 52.451C89.9334 50.7817 90.1176 48.9414 89.7647 47.1664C89.4119 45.3914 88.5379 43.7627 87.2551 42.4894C85.965 41.2088 84.3274 40.3375 82.5467 39.9841C80.766 39.6307 78.9209 39.8108 77.2416 40.502C73.8072 41.9159 71.5663 45.2481 71.5663 48.9442C71.5678 53.9822 75.6692 58.0698 80.7374 58.0815L80.752 58.08ZM80.752 42.1858C83.5019 42.1799 85.9855 43.8226 87.0416 46.3467C87.5584 47.5816 87.6952 48.9432 87.4346 50.2567C87.174 51.5702 86.5277 52.7756 85.5789 53.7182C83.6364 55.6541 80.7125 56.235 78.1704 55.1907C75.6282 54.1464 73.9725 51.6795 73.9725 48.9456C73.9725 45.2203 77.0046 42.196 80.752 42.1872V42.1858Z" fill="#766DF4"/>
<path d="M53.4173 87.8973C58.4651 87.5643 63.417 86.3559 68.053 84.326C68.6468 84.0532 68.9072 83.3653 68.638 82.7787C68.5042 82.4952 68.2665 82.2745 67.9744 82.1624C67.6823 82.0504 67.3583 82.0557 67.07 82.1773C53.1818 88.2493 36.9972 86.2356 25.1012 76.956C17.2173 70.8165 11.9077 62.04 10.1774 52.316L13.4567 54.3693C13.636 54.4798 13.8406 54.5423 14.0509 54.5508C14.2611 54.5593 14.47 54.5135 14.6576 54.4177C14.8432 54.3242 15.0007 54.1828 15.1138 54.008C15.2269 53.8333 15.2916 53.6315 15.3012 53.4233C15.3187 53.0024 15.1066 52.6049 14.7454 52.3967L8.6284 48.5833C8.3566 48.4154 8.0303 48.3602 7.7186 48.4293C7.40828 48.497 7.13738 48.6853 6.96532 48.9529L3.11845 54.9663C2.88442 55.3227 2.86395 55.7759 3.0658 56.1513C3.26765 56.5268 3.65965 56.7673 4.0926 56.782C4.52556 56.7967 4.93219 56.5796 5.15744 56.2173L7.81075 52.0667C7.76102 52.2353 7.75225 52.4128 7.7815 52.5859C9.5806 62.9332 15.2163 72.2685 23.6048 78.7981C31.2284 84.7557 40.689 88 50.4408 88C51.431 88 52.4227 87.9663 53.4188 87.8973H53.4173ZM8.36219 51.2057L8.51284 51.2996C8.38559 51.3509 8.26857 51.4228 8.16619 51.5123L8.36219 51.2189V51.2057ZM26.6209 7.4536C32.5068 4.16827 39.0976 2.4464 45.7909 2.4464H45.8786C55.2603 2.47573 64.3377 5.8784 71.5459 12.0648C78.6077 18.1427 83.4668 26.4997 85.339 35.7808L81.6867 33C81.1601 32.6069 80.4229 32.7257 80.0368 33.264C79.851 33.5244 79.7724 33.8465 79.817 34.1635C79.8617 34.4805 80.0262 34.7682 80.2766 34.9668L86.0338 39.3448C86.2883 39.5384 86.6071 39.6191 86.9187 39.5692C87.0745 39.544 87.2238 39.4878 87.3577 39.4039C87.4915 39.32 87.6074 39.2102 87.6983 39.0808L91.9211 33.1115C92.1697 32.7595 92.2195 32.2945 92.0469 31.8941C91.965 31.6997 91.833 31.5306 91.6643 31.4043C91.4957 31.278 91.2965 31.199 91.0873 31.1755C90.6661 31.1315 90.2536 31.3177 90.002 31.6712L87.6032 35.0445C85.5935 25.3059 80.4683 16.5411 73.0495 10.1552C65.4201 3.63733 55.8059 0.0322667 45.8699 0H45.7762C38.6851 0.00146667 31.7052 1.82453 25.4712 5.30493C24.9066 5.63347 24.7004 6.3668 25.0105 6.95493C25.0814 7.09367 25.1792 7.21684 25.2982 7.31725C25.4171 7.41765 25.5549 7.49328 25.7033 7.53971C25.8517 7.58613 26.0079 7.60243 26.1627 7.58765C26.3175 7.57286 26.4678 7.52729 26.6048 7.4536H26.6209Z" fill="#766DF4"/>
</g>
<defs>
<clipPath id="clip0_54_77">
<rect width="98" height="88" fill="white"/>
</clipPath>
</defs>
</svg>
