<svg width="87" height="68" viewBox="0 0 87 68" fill="none" xmlns="http://www.w3.org/2000/svg">
<path opacity="0.1" fill-rule="evenodd" clip-rule="evenodd" d="M32.1409 64.4968C47.5339 71.9992 77.9804 67.1608 85.4883 51.779C92.9961 36.3973 70.7258 19.0211 55.3329 11.5187C39.9399 4.01637 19.1426 -7.19158 11.6348 8.19019C4.12692 23.572 16.7479 56.9935 32.1409 64.4959V64.4968Z" fill="#766DF4"/>
<path opacity="0.2" d="M19.2434 49.6813C19.3048 49.6023 19.349 49.5113 19.3731 49.4142C19.3971 49.3171 19.4004 49.216 19.3829 49.1175C19.252 48.3557 19.5001 47.5681 20.0401 47.0551C20.2232 46.8776 20.4376 46.7355 20.6724 46.6359C20.3113 46.4847 19.9134 46.4439 19.5291 46.5185C19.1447 46.5931 18.7911 46.7798 18.5129 47.0551C17.9737 47.5767 17.7247 48.3462 17.8557 49.1175C17.8727 49.216 17.8691 49.317 17.845 49.414C17.821 49.511 17.7771 49.602 17.7161 49.6813C17.5938 49.8379 17.4172 49.924 17.2277 49.924H18.7541C18.8488 49.9236 18.9421 49.9014 19.0269 49.8594C19.1117 49.8173 19.1858 49.7564 19.2434 49.6813ZM13.8631 63.7392V51.6025C13.8683 50.6815 14.5953 49.9292 15.5049 49.924H13.7012C12.7907 49.9292 12.0646 50.6815 12.0594 51.6025V63.7392C12.056 64.6619 12.7916 65.4134 13.7012 65.4177H15.5049C14.5945 65.4125 13.8683 64.6602 13.8631 63.7392ZM31.8713 65.3118L31.9083 60.8307C31.9082 60.7166 31.8817 60.6042 31.8309 60.502C31.7801 60.3999 31.7064 60.3109 31.6154 60.2419C31.5205 60.1693 31.4117 60.117 31.2956 60.0882C31.1796 60.0595 31.0589 60.055 30.941 60.0749C30.7825 60.1008 30.6223 60.1137 30.4603 60.112C29.4396 60.1059 28.5102 59.5645 28.0596 58.7132C27.6091 57.8619 27.7151 56.848 28.3336 56.0939C28.952 55.3399 29.9762 54.9749 30.9797 55.1505C31.0977 55.1723 31.2189 55.1695 31.3357 55.1422C31.4525 55.115 31.5624 55.0639 31.6585 54.9922C31.848 54.8484 31.96 54.6332 31.96 54.4068L31.997 49.9309L30.0365 49.924L29.9995 54.4051C29.9978 54.5193 29.9697 54.6316 29.9174 54.7331C29.8651 54.8347 29.79 54.9227 29.698 54.9904C29.6019 55.0622 29.492 55.1133 29.3752 55.1405C29.2584 55.1678 29.1372 55.1706 29.0192 55.1488C28.02 54.9801 27.0036 55.3468 26.3903 56.1C25.777 56.8531 25.6719 57.8602 26.1172 58.7081C26.5626 59.5559 27.4842 60.0982 28.5007 60.1111C28.6618 60.1128 28.8228 60.0999 28.9813 60.0741C29.2225 60.0336 29.4689 60.0947 29.6558 60.2411C29.8427 60.3874 29.9487 60.6026 29.9487 60.8298L29.9116 65.3109L44.5836 65.4177C44.6533 65.4172 44.7229 65.4128 44.7921 65.4048L31.8713 65.3187V65.3118ZM31.8429 32.7088C30.9642 32.7157 30.2519 33.4603 30.2476 34.3804L30.2355 36.1278C30.2355 36.1364 30.2346 36.1424 30.2338 36.1501C30.2337 36.1599 30.2331 36.1697 30.2321 36.1794L30.2286 36.2052L30.2243 36.2336L30.2183 36.2594L30.2114 36.287L30.1942 36.3386C30.1916 36.3472 30.1873 36.3541 30.1838 36.3619L30.1726 36.386L30.1597 36.4084L30.1459 36.4316L30.1313 36.4523L30.1158 36.4746L30.1003 36.4919L30.083 36.5125L30.0658 36.5297L30.0451 36.5495L30.0279 36.5633L30.0055 36.5805L29.9866 36.5926L29.9624 36.6081L29.9418 36.6192L29.9159 36.6313L29.8935 36.6399L29.8677 36.6485L29.816 36.6623L29.7884 36.6666L29.7643 36.67L29.735 36.6718C29.7278 36.6719 29.7206 36.6725 29.7135 36.6735L29.1002 36.6804C27.7737 36.6907 26.703 37.8166 26.7012 39.205C26.6995 40.5934 27.7676 41.7218 29.0942 41.7356L29.6739 41.7442C29.6825 41.7442 29.6911 41.7451 29.6997 41.7459H29.7256C29.7342 41.7468 29.7428 41.7494 29.7531 41.7502L29.779 41.7545L29.8048 41.7631L29.8281 41.77L29.8539 41.7804L29.8763 41.789L29.9022 41.8019L29.9228 41.8131L29.9461 41.8286L29.9659 41.8415L29.9874 41.8587L30.0047 41.8733L30.0245 41.8923L30.0417 41.9095L30.0589 41.9293L30.0762 41.9482L30.1054 41.9912L30.1184 42.0136L30.1313 42.0369L30.1416 42.0601L30.1528 42.0859L30.1614 42.1092L30.17 42.1367L30.1761 42.1608L30.183 42.1892L30.1864 42.215L30.1907 42.2452L30.1933 42.2985L30.1545 48.2033H31.9057L31.9445 42.2985L31.9419 42.2452L31.9376 42.215L31.9342 42.1892L31.9273 42.1608L31.9212 42.1367L31.9126 42.1092L31.904 42.0859L31.8928 42.0601L31.8825 42.0369L31.8713 42.005L31.8584 41.9826L31.8282 41.9396C31.823 41.9327 31.817 41.9267 31.811 41.9207L31.7938 41.9009V41.8837L31.7739 41.8647L31.7567 41.8501L31.7352 41.8329L31.7154 41.82L31.6921 41.8045L31.6714 41.7933L31.6456 41.7804L31.6232 41.7718L31.5974 41.7614L31.5741 41.7545L31.5483 41.7459L31.5224 41.7416L31.4949 41.7373L31.4432 41.7339L30.8635 41.7253C29.5369 41.7124 28.4688 40.5822 28.4705 39.1946C28.4722 37.8071 29.543 36.6812 30.8695 36.67L31.4828 36.6631C31.4914 36.6631 31.4974 36.6623 31.5043 36.6614L31.5336 36.6597L31.5577 36.6563L31.5853 36.652C31.5939 36.6502 31.6025 36.6477 31.6111 36.6451L31.637 36.6382L31.6628 36.6296C31.6714 36.627 31.6783 36.6235 31.6852 36.621L31.7111 36.6089L31.7317 36.5977L31.7559 36.5822L31.7748 36.5702L31.7972 36.553L31.8144 36.5392L31.8351 36.5194L31.8523 36.5022L31.8696 36.4815L31.8851 36.4643L31.9006 36.4419L31.9152 36.4213L31.929 36.398L31.9419 36.3757L31.9531 36.3515L31.9634 36.3283C31.9667 36.3198 31.9696 36.3112 31.9721 36.3025L31.9807 36.2767L31.9876 36.2491L31.9936 36.2233L31.9979 36.1949L32.0014 36.1691L32.0031 36.1398C32.0031 36.1312 32.0039 36.1252 32.0048 36.1174L32.0169 34.3701C32.0212 33.4491 32.7318 32.7045 33.6121 32.6985H31.8609L31.8429 32.7088Z" fill="#766DF4"/>
<path d="M44.5888 31.8481H32.0987C31.3328 31.8531 30.5997 32.1594 30.0583 32.7008C29.5168 33.2421 29.2107 33.9749 29.2062 34.7402L29.1975 36.0021L29.0968 36.003C27.0139 36.015 25.3325 37.709 25.3291 39.7946C25.3256 41.8802 27.0053 43.5785 29.0882 43.5949H29.1433L29.1054 49.2087H24.2299C24.2523 48.8972 24.2385 48.5838 24.1851 48.2757C23.9009 46.5972 22.5313 45.3181 20.843 45.1485C19.786 45.0401 18.7326 45.3896 17.9487 46.1092C17.5568 46.4667 17.2439 46.902 17.0298 47.3872C16.8158 47.8725 16.7054 48.397 16.7057 48.9273L16.7161 49.2087H14.1526C12.5504 49.2148 11.2583 50.5188 11.26 52.1224V64.8668C11.2575 66.4704 12.5521 67.7736 14.1526 67.7805H29.1114L44.494 67.901C44.8697 67.9018 45.2418 67.8286 45.5891 67.6856C45.9364 67.5426 46.2522 67.3327 46.5183 67.0678C46.7922 66.7986 47.0099 66.4778 47.1588 66.1239C47.3077 65.77 47.3848 65.3902 47.3857 65.0063L47.4831 50.4181V34.7695C47.4856 33.1659 46.191 31.8619 44.5905 31.8558L44.5888 31.8481ZM26.4687 39.8015C26.4652 38.3451 27.6402 37.1607 29.0942 37.1555L29.7661 37.1486C29.7747 37.1486 29.7816 37.1478 29.7902 37.1469L29.8221 37.1452L29.8479 37.1409L29.878 37.1357L29.9056 37.1288L29.9607 37.1116L29.9866 37.103L30.0141 37.0901L30.0365 37.0789L30.0624 37.0634L30.0831 37.0505L30.1089 37.0333L30.1278 37.0187L30.1502 36.998L30.1675 36.9808L30.1873 36.9593L30.2045 36.9403L30.2217 36.9171L30.2372 36.8956L30.2519 36.8715L30.2657 36.8482L30.2777 36.8224L30.2889 36.7966C30.2924 36.788 30.2958 36.7794 30.2975 36.7708C30.2993 36.7622 30.3036 36.7536 30.3062 36.7449L30.3148 36.7165L30.3208 36.6907L30.326 36.6615L30.3303 36.6339L30.332 36.6038C30.332 36.5952 30.3337 36.5883 30.3337 36.5805L30.3466 34.7523C30.3482 34.29 30.5322 33.847 30.8586 33.5194C31.185 33.1918 31.6275 33.006 32.0901 33.0024H44.5802C45.0452 33.006 45.4898 33.1937 45.8166 33.5243C46.1434 33.8548 46.3257 34.3014 46.3236 34.7661V49.2613H42.2114C41.9736 49.2613 41.7488 49.3663 41.5972 49.5487C41.4456 49.7312 41.3784 49.9791 41.4223 50.2167C41.5946 51.1188 41.2759 52.0415 40.598 52.6595C40.3289 52.9063 40.0105 53.0933 39.6638 53.2081C39.3171 53.323 38.95 53.3631 38.5867 53.3258C37.4126 53.207 36.4625 52.3169 36.2661 51.1515C36.213 50.842 36.2145 50.5257 36.2704 50.2167C36.2918 50.0998 36.2875 49.9797 36.2578 49.8646C36.228 49.7495 36.1735 49.6423 36.0981 49.5505C36.0235 49.4602 35.93 49.3873 35.8242 49.337C35.7184 49.2868 35.6028 49.2603 35.4857 49.2595L30.2364 49.2165L30.276 42.9786L30.2717 42.9476L30.2682 42.9218C30.2665 42.9114 30.2631 42.902 30.2614 42.8916L30.2553 42.8658L30.2467 42.8374L30.2381 42.8116L30.226 42.7858L30.2148 42.7617L30.2002 42.7358L30.1864 42.7126L30.1537 42.6678L30.1365 42.648L30.1175 42.6265L30.0986 42.6093L30.077 42.5895L30.0572 42.574L30.0331 42.5568L30.0116 42.5439L29.9857 42.5267C29.9771 42.5215 29.9702 42.5181 29.9625 42.5155L29.9366 42.5026L29.9125 42.494L29.8841 42.4836L29.8582 42.4767L29.8298 42.4681L29.8022 42.4638L29.773 42.4587L29.7445 42.4569L29.717 42.4552L29.083 42.4466C28.385 42.4421 27.7172 42.161 27.2263 41.6651C26.7354 41.1693 26.4614 40.499 26.4644 39.8015H26.4687ZM12.4083 64.8703V52.1345C12.4064 51.6699 12.5889 51.2236 12.9156 50.8932C13.2424 50.5628 13.6869 50.3753 14.1517 50.3716H17.0994C17.3371 50.3716 17.5619 50.2666 17.7135 50.0841C17.7893 49.9921 17.8443 49.8847 17.8746 49.7694C17.9049 49.6541 17.9099 49.5336 17.8893 49.4162C17.717 48.5141 18.0357 47.5914 18.7136 46.9734C18.9827 46.7266 19.3011 46.5396 19.6478 46.4248C19.9945 46.3099 20.3616 46.2698 20.725 46.3071C21.899 46.4259 22.8491 47.3159 23.0455 48.4814C23.0987 48.7903 23.0975 49.106 23.0421 49.4145C23.0207 49.532 23.0254 49.6528 23.0557 49.7683C23.0861 49.8839 23.1414 49.9914 23.2178 50.0833C23.293 50.1738 23.3873 50.2467 23.4939 50.2967C23.6005 50.3467 23.7168 50.3725 23.8346 50.3725H29.089L29.0546 54.7167C27.0088 54.5498 25.2067 56.0544 25.0035 58.0995C24.9483 58.6287 25.0041 59.1635 25.1673 59.6698C25.3304 60.1762 25.5973 60.6431 25.951 61.0407C26.2999 61.4312 26.7265 61.7445 27.2035 61.9608C27.6805 62.177 28.1974 62.2914 28.7212 62.2966L28.9968 62.288L28.9624 66.6348H14.1526C13.6876 66.6314 13.2429 66.444 12.9159 66.1135C12.589 65.7831 12.4064 65.3367 12.4083 64.872V64.8703ZM46.2349 65.002C46.2337 65.4702 46.048 65.9192 45.7181 66.2518C45.3946 66.5737 44.9566 66.7542 44.5001 66.7536H44.4863L30.1184 66.6417L30.1485 61.9058C30.1492 61.7874 30.1238 61.6703 30.0743 61.5628C30.0247 61.4553 29.9521 61.3599 29.8617 61.2835C29.7713 61.207 29.6651 61.1516 29.5507 61.1211C29.4363 61.0906 29.3166 61.0858 29.2001 61.107C29.0449 61.1349 28.8875 61.1482 28.7298 61.1466C28.2389 61.1434 27.7587 61.0033 27.3432 60.742C26.9277 60.4807 26.5935 60.1087 26.3782 59.6678C26.1619 59.2267 26.0725 58.7342 26.1199 58.2452C26.1674 57.7563 26.3498 57.2901 26.647 56.8988C27.2525 56.1008 28.2578 55.7152 29.2311 55.902C29.4672 55.9476 29.7109 55.8865 29.8961 55.7342C29.988 55.6589 30.0622 55.5644 30.1134 55.4573C30.1646 55.3502 30.1916 55.2331 30.1924 55.1144L30.2286 50.3777L35.0911 50.4173C35.0678 50.7309 35.0828 51.0463 35.1359 51.3563C35.4202 53.0348 36.7898 54.3139 38.4781 54.4835L38.8537 54.5007C39.7857 54.5033 40.685 54.1538 41.3724 53.5229C41.7643 53.1653 42.0772 52.73 42.2912 52.2448C42.5053 51.7595 42.6157 51.235 42.6154 50.7047L42.605 50.4233H46.3219L46.2289 65.0045L46.2349 65.002ZM43.4509 46.7797C43.6032 46.779 43.7491 46.7182 43.8567 46.6105C43.9643 46.5028 44.025 46.3569 44.0254 46.2047V45.01C44.025 44.8578 43.9643 44.7119 43.8567 44.6042C43.7491 44.4965 43.6032 44.4357 43.4509 44.435C43.2986 44.4357 43.1527 44.4965 43.0451 44.6042C42.9375 44.7119 42.8768 44.8578 42.8764 45.01V46.2047C42.8768 46.3569 42.9375 46.5028 43.0451 46.6105C43.1527 46.7182 43.2986 46.779 43.4509 46.7797ZM43.4509 42.7014C43.6032 42.7007 43.7491 42.6399 43.8567 42.5322C43.9643 42.4245 44.025 42.2786 44.0254 42.1264V35.8713C44.025 35.7191 43.9643 35.5732 43.8567 35.4655C43.7491 35.3578 43.6032 35.297 43.4509 35.2963C43.2986 35.297 43.1527 35.3578 43.0451 35.4655C42.9375 35.5732 42.8768 35.7191 42.8764 35.8713V42.1264C42.8768 42.2786 42.9375 42.4245 43.0451 42.5322C43.1527 42.6399 43.2986 42.7007 43.4509 42.7014ZM43.6706 64.9297C43.8229 64.929 43.9688 64.8682 44.0764 64.7604C44.184 64.6527 44.2446 64.5069 44.2451 64.3547V63.1599C44.2446 63.0077 44.184 62.8619 44.0764 62.7542C43.9688 62.6465 43.8229 62.5856 43.6706 62.5849C43.5182 62.5856 43.3724 62.6465 43.2647 62.7542C43.1571 62.8619 43.0965 63.0077 43.096 63.1599V64.3547C43.0965 64.5069 43.1571 64.6527 43.2647 64.7604C43.3724 64.8682 43.5182 64.929 43.6706 64.9297ZM43.6706 60.8514C43.8229 60.8507 43.9688 60.7899 44.0764 60.6822C44.184 60.5745 44.2446 60.4286 44.2451 60.2764V54.0213C44.2446 53.869 44.184 53.7232 44.0764 53.6155C43.9688 53.5078 43.8229 53.4469 43.6706 53.4463C43.5182 53.4469 43.3724 53.5078 43.2647 53.6155C43.1571 53.7232 43.0965 53.869 43.096 54.0213V60.2764C43.0965 60.4286 43.1571 60.5745 43.2647 60.6822C43.3724 60.7899 43.5182 60.8507 43.6706 60.8514ZM22.7027 28.3749L19.9876 26.7248C21.2056 25.0335 20.8473 22.6905 19.1779 21.4312C18.7492 21.1065 18.2569 20.8758 17.7329 20.7541C17.2089 20.6325 16.6652 20.6227 16.1372 20.7254C15.0674 20.9319 14.1353 21.5741 13.5703 22.4985L13.4325 22.743L11.198 21.3916C10.5268 20.9846 9.72161 20.8596 8.95842 21.0438C8.19437 21.228 7.53713 21.7066 7.13228 22.3728L0.430696 33.3561C-0.415186 34.7334 0.0241212 36.5453 1.41526 37.3974L3.3396 38.568C3.5291 38.6825 3.75651 38.7126 3.96841 38.6507C4.07291 38.6202 4.16992 38.5684 4.25326 38.4985C4.33661 38.4285 4.40447 38.342 4.45251 38.2444C4.64793 37.8463 4.95056 37.5106 5.32641 37.2749C5.70225 37.0392 6.13642 36.9129 6.58013 36.9102C7.48803 36.9033 8.32013 37.4095 8.7267 38.2134C8.92566 38.6072 9.00923 39.0492 8.96778 39.4884C8.92632 39.9276 8.76154 40.3461 8.49241 40.6958C8.42585 40.7814 8.37823 40.8802 8.35269 40.9855C8.32715 41.0909 8.32427 41.2004 8.34425 41.307C8.36442 41.4139 8.40691 41.5154 8.46895 41.6048C8.53098 41.6943 8.61118 41.7696 8.70431 41.826L12.826 44.3222C13.2869 44.6028 13.8166 44.7509 14.3593 44.7509C14.8629 44.7522 15.3585 44.6252 15.7993 44.382C16.2402 44.1388 16.6117 43.7873 16.8789 43.3607L18.2864 41.0969C18.3473 40.9996 18.3869 40.8903 18.4023 40.7765C18.4178 40.6627 18.4088 40.5468 18.376 40.4367C18.3428 40.3263 18.2867 40.2242 18.2113 40.1369C18.1359 40.0497 18.0429 39.9794 17.9384 39.9306C16.5894 39.3023 16.0063 37.715 16.6325 36.3757C17.2587 35.0363 18.8601 34.4502 20.2159 35.0639C20.4052 35.1526 20.5838 35.2626 20.7482 35.3918C20.8394 35.4642 20.9449 35.5164 21.0577 35.5452C21.1705 35.574 21.2881 35.5786 21.4029 35.5588C21.5175 35.5396 21.6267 35.4962 21.7233 35.4315C21.8198 35.3668 21.9015 35.2822 21.9628 35.1835L23.6752 32.4291C24.5383 31.0416 24.1024 29.2245 22.7018 28.3689L22.7027 28.3749ZM22.6769 31.818L21.1608 34.2539C21.0183 34.1633 20.8701 34.082 20.7172 34.0103C19.0788 33.2494 17.1252 33.7177 16.0226 35.1293C15.6903 35.5566 15.4521 36.0492 15.3237 36.575C15.1953 37.1007 15.1796 37.6476 15.2775 38.1798C15.4757 39.2558 16.126 40.1966 17.0658 40.7621L17.0916 40.7793L15.8857 42.7315C15.3732 43.5579 14.2835 43.8161 13.448 43.3125L9.67337 41.0186C10.1422 40.2236 10.2781 39.2758 10.0517 38.3811C9.82524 37.4865 9.25469 36.7173 8.46398 36.2405C6.81529 35.2386 4.66096 35.7258 3.61438 37.3363L2.03804 36.3774C1.8381 36.2556 1.66413 36.0957 1.52605 35.9067C1.38797 35.7177 1.2885 35.5034 1.23331 35.276C1.17811 35.0486 1.16829 34.8125 1.20438 34.5814C1.24048 34.3502 1.3218 34.1283 1.44369 33.9285L8.14872 22.965C8.39163 22.5639 8.78614 22.2747 9.24698 22.1645C9.70625 22.0536 10.1908 22.1285 10.5951 22.3728L13.1672 23.9351C13.3739 24.0617 13.628 24.0901 13.8588 24.0212C14.0897 23.9523 14.2775 23.7647 14.3645 23.5366C14.5282 23.1119 14.7975 22.736 15.147 22.4442C15.4965 22.1525 15.9147 21.9546 16.362 21.8693C17.1045 21.7256 17.8746 21.9037 18.4741 22.3599C18.7699 22.583 19.0162 22.8649 19.1974 23.1879C19.3786 23.5108 19.4907 23.8679 19.5268 24.2364C19.5622 24.6044 19.5207 24.9758 19.4049 25.327C19.2891 25.6782 19.1015 26.0015 18.854 26.2764C18.7748 26.3648 18.7159 26.4695 18.6817 26.5832C18.6474 26.6968 18.6386 26.8166 18.6559 26.934C18.6737 27.0528 18.7176 27.1663 18.7843 27.2662C18.851 27.3662 18.9389 27.4503 19.0418 27.5124L22.0911 29.3657C22.2921 29.488 22.4669 29.649 22.6053 29.8392C22.7438 30.0294 22.8432 30.2451 22.8978 30.4738C22.9524 30.7026 22.9612 30.9399 22.9235 31.1721C22.8859 31.4043 22.8027 31.6267 22.6786 31.8266H22.6777L22.6769 31.818Z" fill="#766DF4"/>
</svg>
